<?xml version="1.0" encoding="UTF-8" standalone="no"?>
<!-- Created with Inkscape (http://www.inkscape.org/) -->

<svg
   xmlns:dc="http://purl.org/dc/elements/1.1/"
   xmlns:cc="http://creativecommons.org/ns#"
   xmlns:rdf="http://www.w3.org/1999/02/22-rdf-syntax-ns#"
   xmlns:svg="http://www.w3.org/2000/svg"
   xmlns="http://www.w3.org/2000/svg"
   xmlns:sodipodi="http://sodipodi.sourceforge.net/DTD/sodipodi-0.dtd"
   xmlns:inkscape="http://www.inkscape.org/namespaces/inkscape"
   id="svg3039"
   version="1.1"
   inkscape:version="0.48.2 r9819"
   width="990"
   height="765"
   xml:space="preserve"
   sodipodi:docname="sloan_bw.pdf"><metadata
     id="metadata3045"><rdf:RDF><cc:Work
         rdf:about=""><dc:format>image/svg+xml</dc:format><dc:type
           rdf:resource="http://purl.org/dc/dcmitype/StillImage" /><dc:title></dc:title></cc:Work></rdf:RDF></metadata><defs
     id="defs3043"><clipPath
       clipPathUnits="userSpaceOnUse"
       id="clipPath3055"><path
         d="M 0,0 792,0 792,612 0,612 0,0 z"
         id="path3057" /></clipPath></defs><sodipodi:namedview
     pagecolor="#ffffff"
     bordercolor="#666666"
     borderopacity="1"
     objecttolerance="10"
     gridtolerance="10"
     guidetolerance="10"
     inkscape:pageopacity="0"
     inkscape:pageshadow="2"
     inkscape:window-width="640"
     inkscape:window-height="480"
     id="namedview3041"
     showgrid="false"
     inkscape:zoom="0.30849673"
     inkscape:cx="-23.644068"
     inkscape:cy="2586.7373"
     inkscape:window-x="155"
     inkscape:window-y="23"
     inkscape:window-maximized="0"
     inkscape:current-layer="g3047" /><g
     id="g3047"
     inkscape:groupmode="layer"
     inkscape:label="sloan_bw"
     transform="matrix(1.25,0,0,-1.25,0,765)"><g
       id="g3049" /><g
       id="g3051"><g
         id="g3053"
         clip-path="url(#clipPath3055)"><path
           d="m 173.162,44.75 471.5,0 0,543.729 -471.5,0 0,-543.729 z"
           style="fill:#231f20;fill-opacity:1;fill-rule:nonzero;stroke:none"
           id="path3059" /><path
           d="m 223.8418,225.292 26.161,0 9.963,-40.613 9.466,40.613 26.078,0.079 0.079,-60.043 -15.687,0 0.742,50.326 -14.197,-50.326 -14.954,0 -13.695,50.739 0.413,-50.739 -14.369,0 0,59.964 z"
           style="fill:#ffffff;fill-opacity:1;fill-rule:nonzero;stroke:none"
           id="path3061" /><path
           d="m 305.473,165.328 17.112,0 0,59.964 -17.112,0 0,-59.964 z"
           style="fill:#ffffff;fill-opacity:1;fill-rule:nonzero;stroke:none"
           id="path3063" /><path
           d="m 346.0811,213.4072 -18.269,0 0,11.885 53.73,0 0,-11.885 -18.682,0 0,-48.079 -16.779,0 0,48.079 z"
           style="fill:#ffffff;fill-opacity:1;fill-rule:nonzero;stroke:none"
           id="path3065" /><path
           d="m 394.499,182.8496 c 0.167,-4.146 0.658,-11.876 14.447,-11.876 12.451,0 14.03,7.73 14.03,10.71 0,6.728 -5.395,8.056 -13.784,10.136 -9.131,2.242 -13.199,3.235 -16.267,5.31 -4.907,3.324 -6.235,7.809 -6.235,11.802 0,12.205 11.541,17.517 22.832,17.517 3.988,0 12.043,-0.664 16.862,-5.897 3.319,-3.653 3.486,-7.721 3.654,-10.214 l -8.641,0 c -0.413,7.475 -6.722,9.137 -12.618,9.137 -8.301,0 -13.287,-3.737 -13.287,-9.717 0,-5.315 3.491,-7.144 10.794,-8.886 14.285,-3.658 15.859,-3.993 19.351,-6.309 5.561,-3.653 5.979,-9.471 5.979,-11.964 0,-10.627 -8.301,-18.682 -23.668,-18.682 -4.568,0 -13.872,0.743 -18.597,6.811 -3.409,4.406 -3.493,9.216 -3.493,12.122 l 8.641,0 z"
           style="fill:#ffffff;fill-opacity:1;fill-rule:nonzero;stroke:none"
           id="path3067" /><path
           d="m 442.911,165.328 7.8,0 0,59.876 -7.8,0 0,-59.876 z"
           style="fill:#ffffff;fill-opacity:1;fill-rule:nonzero;stroke:none"
           id="path3069" /><path
           d="m 461.5928,185.6719 c 0,-12.21 6.728,-21.755 20.517,-21.755 14.196,0 21.086,10.13 21.086,22.335 0,8.719 -3.733,21.849 -20.427,21.849 -16.362,0 -21.176,-12.126 -21.176,-22.429 m 8.145,0.497 c 0,13.041 8.054,16.193 13.031,16.193 7.312,0 12.126,-5.483 12.126,-15.859 0,-12.539 -6.728,-16.769 -12.623,-16.769 -8.886,0 -12.534,7.883 -12.534,16.435"
           style="fill:#ffffff;fill-opacity:1;fill-rule:nonzero;stroke:none"
           id="path3071" /><path
           d="m 546.71,165.3281 c -0.58,4.239 -0.664,9.806 -0.664,10.46 l 0.335,19.931 c 0,1.918 -0.083,3.904 -1.416,6.397 -2.237,4.234 -8.719,6.147 -14.782,6.147 -4.397,0 -10.297,-0.998 -13.45,-4.48 -2.41,-2.832 -2.66,-5.733 -2.906,-7.897 l 7.809,0 c 0.079,1.667 0.497,7.061 8.38,7.061 2.247,0 5.655,-0.669 7.228,-2.734 1.495,-1.829 1.495,-4.072 1.495,-9.22 -2.41,0.162 -3.648,0.245 -5.64,0.245 -3.329,0 -9.968,-0.245 -14.457,-2.743 -6.137,-3.57 -7.308,-8.882 -7.308,-12.206 0,-6.889 5.148,-12.288 14.698,-12.288 3.487,0 9.137,0.658 12.869,7.562 0,-2.163 0.172,-4.155 0.752,-6.235 l 7.057,0 z m -7.971,20.266 c -0.162,-5.813 -0.246,-8.139 -1.992,-10.962 -1.912,-2.911 -4.902,-4.485 -8.885,-4.485 -6.973,0 -8.64,4.564 -8.64,7.219 0,8.473 11.875,8.473 15.033,8.473 1.907,0 3.078,-0.083 4.484,-0.245"
           style="fill:#ffffff;fill-opacity:1;fill-rule:nonzero;stroke:none"
           id="path3073" /><path
           d="m 559.501,202.1953 -0.079,4.823 7.8,0 0.088,-6.726 c 0.91,1.74 3.894,7.552 13.366,7.552 3.737,0 15.111,-1.411 15.111,-14.196 l 0,-28.32 -7.967,0 0,26.491 c 0,2.743 -0.334,5.227 -2.247,7.145 -1.991,1.908 -4.73,2.823 -7.385,2.823 -5.651,0 -10.878,-4.068 -10.878,-12.451 l 0,-24.008 -7.809,0 0,36.867 z"
           style="fill:#ffffff;fill-opacity:1;fill-rule:nonzero;stroke:none"
           id="path3075" /><path
           d="m 224.0044,96.542 0,33.646 11.325,0 5.266,-22.886 0.094,0 5.596,22.886 10.951,0 0,-33.646 -6.85,0 0,25.965 -0.093,0 -6.476,-25.965 -6.713,0 -6.157,25.965 -0.093,0 0,-25.965 -6.85,0 z"
           style="fill:#ffffff;fill-opacity:1;fill-rule:nonzero;stroke:none"
           id="path3077" /><path
           d="m 276.2036,96.542 1.917,7.455 9.6,0 1.863,-7.455 7.411,0 -9.137,33.646 -9.274,0 -9.324,-33.646 6.944,0 z m 10.027,12.629 -6.717,0 3.22,14.546 0.089,0 3.408,-14.546 z"
           style="fill:#ffffff;fill-opacity:1;fill-rule:nonzero;stroke:none"
           id="path3079" /><path
           d="m 309.2041,96.542 0,33.646 9.516,0 8.94,-23.299 0.093,0 0,23.299 6.575,0 0,-33.646 -9.279,0 -9.181,24.607 -0.089,0 0,-24.607 -6.575,0 z"
           style="fill:#ffffff;fill-opacity:1;fill-rule:nonzero;stroke:none"
           id="path3081" /><path
           d="m 360.1006,123.7168 -0.094,0 -3.215,-14.546 6.712,0 -3.403,14.546 z m -13.563,-27.175 9.325,33.646 9.269,0 9.142,-33.646 -7.416,0 -1.863,7.455 -9.599,0 -1.908,-7.455 -6.95,0 z"
           style="fill:#ffffff;fill-opacity:1;fill-rule:nonzero;stroke:none"
           id="path3083" /><path
           d="m 401.8164,119.8418 c 0.044,3.127 -0.472,5.876 -4.194,5.876 -4.382,0 -4.382,-5.916 -4.382,-12.441 0,-10.534 1.022,-12.397 5.035,-12.397 1.161,0 2.419,0.275 3.497,0.653 l 0,7.451 -3.826,0 0,5.178 10.863,0 0,-17.064 c -1.908,-0.368 -6.719,-1.116 -9.512,-1.116 -11.835,0 -13.187,4.898 -13.187,17.664 0,8.477 0.418,17.102 11.93,17.102 6.898,0 11.187,-3.864 10.769,-10.906 l -6.993,0 z"
           style="fill:#ffffff;fill-opacity:1;fill-rule:nonzero;stroke:none"
           id="path3085" /><path
           d="m 423.7686,96.542 0,33.646 18.356,0 0,-5.168 -11.315,0 0,-8.296 10.436,0 0,-5.178 -10.436,0 0,-9.83 11.693,0 0,-5.174 -18.734,0 z"
           style="fill:#ffffff;fill-opacity:1;fill-rule:nonzero;stroke:none"
           id="path3087" /><path
           d="m 455.79,96.542 0,33.646 11.32,0 5.272,-22.886 0.094,0 5.585,22.886 10.961,0 0,-33.646 -6.849,0 0,25.965 -0.094,0 -6.48,-25.965 -6.713,0 -6.152,25.965 -0.093,0 0,-25.965 -6.851,0 z"
           style="fill:#ffffff;fill-opacity:1;fill-rule:nonzero;stroke:none"
           id="path3089" /><path
           d="m 503.6084,96.542 0,33.646 18.372,0 0,-5.168 -11.335,0 0,-8.296 10.436,0 0,-5.178 -10.436,0 0,-9.83 11.699,0 0,-5.174 -18.736,0 z"
           style="fill:#ffffff;fill-opacity:1;fill-rule:nonzero;stroke:none"
           id="path3091" /><path
           d="m 535.8184,96.542 0,33.646 9.511,0 8.939,-23.299 0.099,0 0,23.299 6.569,0 0,-33.646 -9.274,0 -9.181,24.607 -0.094,0 0,-24.607 -6.569,0 z"
           style="fill:#ffffff;fill-opacity:1;fill-rule:nonzero;stroke:none"
           id="path3093" /><path
           d="m 595.7529,130.1875 0,-5.586 -7.829,0 0,-28.06 -7.037,0 0,28.06 -7.828,0 0,5.586 22.694,0 z"
           style="fill:#ffffff;fill-opacity:1;fill-rule:nonzero;stroke:none"
           id="path3095" /><path
           d="m 223.822,264.023 371.936,0 0,16.729 -371.936,0 0,-16.729 z"
           style="fill:#ffffff;fill-opacity:1;fill-rule:nonzero;stroke:none"
           id="path3097" /><path
           d="m 238.255,293.095 14.099,0 0,92.056 -14.099,0 0,-92.056 z"
           style="fill:#ffffff;fill-opacity:1;fill-rule:nonzero;stroke:none"
           id="path3099" /><path
           d="m 275.057,293.095 14.094,0 0,92.056 -14.094,0 0,-92.056 z"
           style="fill:#ffffff;fill-opacity:1;fill-rule:nonzero;stroke:none"
           id="path3101" /><path
           d="m 311.85,293.095 14.098,0 0,92.056 -14.098,0 0,-92.056 z"
           style="fill:#ffffff;fill-opacity:1;fill-rule:nonzero;stroke:none"
           id="path3103" /><path
           d="m 348.647,293.095 14.1,0 0,92.056 -14.1,0 0,-92.056 z"
           style="fill:#ffffff;fill-opacity:1;fill-rule:nonzero;stroke:none"
           id="path3105" /><path
           d="m 385.44,293.095 14.104,0 0,92.056 -14.104,0 0,-92.056 z"
           style="fill:#ffffff;fill-opacity:1;fill-rule:nonzero;stroke:none"
           id="path3107" /><path
           d="m 422.249,293.095 14.088,0 0,92.056 -14.088,0 0,-92.056 z"
           style="fill:#ffffff;fill-opacity:1;fill-rule:nonzero;stroke:none"
           id="path3109" /><path
           d="m 459.046,293.095 14.099,0 0,92.056 -14.099,0 0,-92.056 z"
           style="fill:#ffffff;fill-opacity:1;fill-rule:nonzero;stroke:none"
           id="path3111" /><path
           d="m 495.844,293.095 14.089,0 0,92.056 -14.089,0 0,-92.056 z"
           style="fill:#ffffff;fill-opacity:1;fill-rule:nonzero;stroke:none"
           id="path3113" /><path
           d="m 532.641,293.095 14.098,0 0,92.056 -14.098,0 0,-92.056 z"
           style="fill:#ffffff;fill-opacity:1;fill-rule:nonzero;stroke:none"
           id="path3115" /><path
           d="m 569.434,293.095 14.093,0 0,92.056 -14.093,0 0,-92.056 z"
           style="fill:#ffffff;fill-opacity:1;fill-rule:nonzero;stroke:none"
           id="path3117" /><path
           d="m 223.714,424.624 371.95,0 0,12.544 -371.95,0 0,-12.544 z"
           style="fill:#ffffff;fill-opacity:1;fill-rule:nonzero;stroke:none"
           id="path3119" /><path
           d="m 266.851,450.574 283.229,0 0,12.549 -283.229,0 0,-12.549 z"
           style="fill:#ffffff;fill-opacity:1;fill-rule:nonzero;stroke:none"
           id="path3121" /><path
           d="m 234.346,399.284 352.418,0 0,12.559 -352.418,0 0,-12.559 z"
           style="fill:#ffffff;fill-opacity:1;fill-rule:nonzero;stroke:none"
           id="path3123" /><path
           d="m 270.7944,477.4028 c 33.085,39.276 82.644,64.232 138.015,64.232 55.351,0 104.89,-24.946 137.989,-64.173 l -276.004,-0.059 z"
           style="fill:#ffffff;fill-opacity:1;fill-rule:nonzero;stroke:none"
           id="path3125" /></g></g></g></svg>